<svg width="34" height="34" viewBox="0 0 34 34" fill="none" xmlns="http://www.w3.org/2000/svg">
    <path d="M16.207 9.58547C16.207 8.14638 17.3345 8.14638 17.3345 6.70729C17.3345 5.26819 16.207 5.26819 16.207 3.8291" stroke="black" stroke-width="1.5" stroke-linecap="round" stroke-linejoin="round"/>
    <path d="M21.0068 9.58547C21.0068 8.14638 22.1343 8.14638 22.1343 6.70729C22.1343 5.26819 21.0068 5.26819 21.0068 3.8291" stroke="black" stroke-width="1.5" stroke-linecap="round" stroke-linejoin="round"/>
    <path d="M11.3955 9.58547C11.3955 8.14638 12.523 8.14638 12.523 6.70729C12.523 5.26819 11.3955 5.26819 11.3955 3.8291" stroke="black" stroke-width="1.5" stroke-linecap="round" stroke-linejoin="round"/>
    <path d="M27.3725 29.6909H6.16999C5.78499 29.6909 5.46875 29.6909 5.46875 29.6909C5.46875 29.6909 5.78499 29.6909 6.16999 29.6909H27.3725ZM27.3725 29.6909C27.7575 29.6909 28.0738 29.6909 28.0738 29.6909C28.0738 29.6909 27.7575 29.6909 27.3725 29.6909Z" stroke="black" stroke-width="1.5" stroke-linecap="round" stroke-linejoin="round"/>
    <path d="M23.8393 13.8896H8.28809V20.3586C8.28809 24.7178 11.7668 28.2526 16.0568 28.2526C20.3468 28.2526 23.8256 24.7178 23.8256 20.3586V13.8896H23.8393Z" stroke="black" stroke-width="1.5" stroke-linecap="round" stroke-linejoin="round"/>
    <path d="M24.5411 22.5096H23.8398V15.3281H24.5411C26.4936 15.3281 28.0748 16.9349 28.0748 18.9189C28.0748 20.9029 26.4936 22.5096 24.5411 22.5096Z" stroke="black" stroke-width="1.5" stroke-linecap="round" stroke-linejoin="round"/>
</svg>
